<svg width="16" height="16" viewBox="0 0 16 16" fill="none" xmlns="http://www.w3.org/2000/svg">
<path d="M0.8 1.33333V3.11111C0.8 3.35657 0.979086 3.55556 1.2 3.55556H14.8C15.0209 3.55556 15.2 3.35657 15.2 3.11111V1.33333C15.2 1.08787 15.0209 0.888889 14.8 0.888889H1.2C0.979086 0.888889 0.8 1.08787 0.8 1.33333ZM15.2 4.36858V13.7778C15.2 15.0051 14.3046 16 13.2 16H2.8C1.69543 16 0.8 15.0051 0.8 13.7778V4.36858C0.333923 4.18554 0 3.69165 0 3.11111V1.33333C0 0.596954 0.537258 0 1.2 0H14.8C15.4627 0 16 0.596954 16 1.33333V3.11111C16 3.69165 15.6661 4.18554 15.2 4.36858ZM14.4 4.44444H1.6V13.7778C1.6 14.5142 2.13726 15.1111 2.8 15.1111H13.2C13.8627 15.1111 14.4 14.5142 14.4 13.7778V4.44444ZM4.8 7.55556C4.8 6.81918 5.33726 6.22222 6 6.22222H10C10.6627 6.22222 11.2 6.81918 11.2 7.55556C11.2 8.29193 10.6627 8.88889 10 8.88889H6C5.33726 8.88889 4.8 8.29193 4.8 7.55556ZM5.6 7.55556C5.6 7.80102 5.77909 8 6 8H10C10.2209 8 10.4 7.80102 10.4 7.55556C10.4 7.3101 10.2209 7.11111 10 7.11111H6C5.77909 7.11111 5.6 7.3101 5.6 7.55556Z" fill="black"/>
</svg>
