<svg width="16" height="16" viewBox="0 0 16 16" fill="none" xmlns="http://www.w3.org/2000/svg">
<path d="M8 8.86177V6.33317C8 5.78089 7.55228 5.33317 7 5.33317H3.66667C3.11438 5.33317 2.66667 5.78089 2.66667 6.33317V8.1951L3.43096 7.4308C3.56114 7.30063 3.77219 7.30063 3.90237 7.4308L5.66667 9.1951L6.7643 8.09747C6.89447 7.96729 7.10553 7.96729 7.2357 8.09747L8 8.86177ZM7.99166 9.79624L7 8.80457L5.90237 9.90221C5.77219 10.0324 5.56114 10.0324 5.43096 9.90221L3.66667 8.13791L2.66667 9.13791V9.6665C2.66667 10.2188 3.11438 10.6665 3.66667 10.6665H7C7.50832 10.6665 7.92806 10.2872 7.99166 9.79624ZM3.66667 4.6665H7C7.92048 4.6665 8.66667 5.4127 8.66667 6.33317V9.6665C8.66667 10.587 7.92048 11.3332 7 11.3332H3.66667C2.74619 11.3332 2 10.587 2 9.6665V6.33317C2 5.4127 2.74619 4.6665 3.66667 4.6665ZM6.33333 5.99984H7C7.18409 5.99984 7.33333 6.14908 7.33333 6.33317V6.99984C7.33333 7.18393 7.18409 7.33317 7 7.33317H6.33333C6.14924 7.33317 6 7.18393 6 6.99984V6.33317C6 6.14908 6.14924 5.99984 6.33333 5.99984ZM10.3333 9.99984C10.1492 9.99984 10 9.8506 10 9.6665C10 9.48241 10.1492 9.33317 10.3333 9.33317H13.6667C13.8508 9.33317 14 9.48241 14 9.6665C14 9.8506 13.8508 9.99984 13.6667 9.99984H10.3333ZM10.3333 6.6665C10.1492 6.6665 10 6.51727 10 6.33317C10 6.14908 10.1492 5.99984 10.3333 5.99984H13.6667C13.8508 5.99984 14 6.14908 14 6.33317C14 6.51727 13.8508 6.6665 13.6667 6.6665H10.3333ZM2.33333 3.33317C2.14924 3.33317 2 3.18393 2 2.99984C2 2.81574 2.14924 2.6665 2.33333 2.6665H13.6667C13.8508 2.6665 14 2.81574 14 2.99984C14 3.18393 13.8508 3.33317 13.6667 3.33317H2.33333ZM2.33333 13.3332C2.14924 13.3332 2 13.1839 2 12.9998C2 12.8157 2.14924 12.6665 2.33333 12.6665H13.6667C13.8508 12.6665 14 12.8157 14 12.9998C14 13.1839 13.8508 13.3332 13.6667 13.3332H2.33333Z" fill="black"/>
</svg>
