<svg width="16" height="16" viewBox="0 0 16 16" fill="none" xmlns="http://www.w3.org/2000/svg">
<path d="M7.97371 8.97947C10.3382 8.97947 12.2561 6.96564 12.2561 4.48284C12.2561 2.00004 10.3382 0 7.97371 0C5.60918 0 3.69128 2.01383 3.69128 4.48284C3.69128 6.95185 5.60918 8.97947 7.97371 8.97947ZM7.97371 1.17243C9.7077 1.17243 11.1264 2.66212 11.1264 4.48284C11.1264 6.30356 9.7077 7.79324 7.97371 7.79324C6.23972 7.79324 4.821 6.30356 4.821 4.48284C4.821 2.66212 6.23972 1.17243 7.97371 1.17243Z" fill="black"/>
<path d="M0.56486 15.9997H15.4351C15.7504 15.9997 16 15.7377 16 15.4066C16 12.3031 13.5961 9.76514 10.6273 9.76514H5.37274C2.41708 9.76514 0 12.2893 0 15.4066C0 15.7377 0.249589 15.9997 0.56486 15.9997ZM5.37274 10.9514H10.6273C12.7816 10.9514 14.555 12.6342 14.8309 14.8135H1.16913C1.44499 12.6479 3.21839 10.9514 5.37274 10.9514Z" fill="black"/>
</svg>
