<svg width="20" height="20" viewBox="0 0 20 20" fill="none" xmlns="http://www.w3.org/2000/svg">
<path fill-rule="evenodd" clip-rule="evenodd" d="M2.54543 0C1.14511 9.82471e-06 0 1.14691 0 2.54944C0 3.95196 1.14511 5.09886 2.54543 5.09887C3.94577 5.09887 5.09086 3.95196 5.09086 2.54944C5.09086 1.1469 3.94577 0 2.54543 0ZM2.54543 0.921067C3.44877 0.921067 4.17124 1.64468 4.17124 2.54944C4.17124 3.45418 3.44877 4.17781 2.54543 4.17781C1.64211 4.17781 0.91962 3.45417 0.91962 2.54944C0.91962 1.64469 1.64211 0.921077 2.54543 0.921067Z" fill="#3D3D3D"/>
<path fill-rule="evenodd" clip-rule="evenodd" d="M6.85996 0.763184C6.73801 0.763184 6.62106 0.811691 6.53483 0.898058C6.4486 0.984424 6.40015 1.10158 6.40015 1.22372C6.40015 1.34586 6.4486 1.46299 6.53483 1.54935C6.62106 1.63572 6.73801 1.68425 6.85996 1.68425H19.5402C19.6621 1.68425 19.7791 1.63572 19.8653 1.54935C19.9515 1.46299 20 1.34586 20 1.22372C20 1.10158 19.9515 0.984424 19.8653 0.898058C19.7791 0.811691 19.6621 0.763184 19.5402 0.763184H6.85996Z" fill="#3D3D3D"/>
<path fill-rule="evenodd" clip-rule="evenodd" d="M6.85996 3.41455C6.73801 3.41455 6.62106 3.46308 6.53483 3.54945C6.4486 3.63582 6.40015 3.75294 6.40015 3.87508C6.40015 3.99723 6.4486 4.11438 6.53483 4.20074C6.62106 4.28711 6.73801 4.33562 6.85996 4.33562H12.1085C12.2304 4.33562 12.3474 4.28711 12.4336 4.20074C12.5199 4.11438 12.5683 3.99723 12.5683 3.87508C12.5683 3.75294 12.5199 3.63582 12.4336 3.54945C12.3474 3.46308 12.2304 3.41455 12.1085 3.41455H6.85996Z" fill="#3D3D3D"/>
<path fill-rule="evenodd" clip-rule="evenodd" d="M2.54543 7.45068C1.14511 7.45068 0 8.59759 0 10.0001C0 11.4026 1.14511 12.5494 2.54543 12.5494C3.94577 12.5494 5.09086 11.4026 5.09086 10.0001C5.09086 8.59759 3.94577 7.45068 2.54543 7.45068ZM2.54543 8.37175C3.44877 8.37175 4.17124 9.09537 4.17124 10.0001C4.17124 10.9049 3.44877 11.6283 2.54543 11.6283C1.64211 11.6283 0.91962 10.9049 0.91962 10.0001C0.91962 9.09537 1.64211 8.37175 2.54543 8.37175Z" fill="#3D3D3D"/>
<path fill-rule="evenodd" clip-rule="evenodd" d="M6.85996 8.21387C6.73801 8.21387 6.62106 8.2624 6.53483 8.34877C6.4486 8.43513 6.40015 8.55226 6.40015 8.6744C6.40015 8.79654 6.4486 8.91367 6.53483 9.00004C6.62106 9.0864 6.73801 9.13493 6.85996 9.13493H19.5402C19.6621 9.13493 19.7791 9.0864 19.8653 9.00004C19.9515 8.91367 20 8.79654 20 8.6744C20 8.55226 19.9515 8.43513 19.8653 8.34877C19.7791 8.2624 19.6621 8.21387 19.5402 8.21387H6.85996Z" fill="#3D3D3D"/>
<path fill-rule="evenodd" clip-rule="evenodd" d="M6.85996 10.8652C6.73801 10.8652 6.62106 10.9137 6.53483 11.0001C6.4486 11.0865 6.40015 11.2036 6.40015 11.3258C6.40015 11.4479 6.4486 11.565 6.53483 11.6514C6.62106 11.7378 6.73801 11.7863 6.85996 11.7863H12.1085C12.2304 11.7863 12.3474 11.7378 12.4336 11.6514C12.5199 11.565 12.5683 11.4479 12.5683 11.3258C12.5683 11.2036 12.5199 11.0865 12.4336 11.0001C12.3474 10.9137 12.2304 10.8652 12.1085 10.8652H6.85996Z" fill="#3D3D3D"/>
<path fill-rule="evenodd" clip-rule="evenodd" d="M2.54543 14.9014C1.14512 14.9014 9.80928e-06 16.0481 0 17.4506C0 18.8531 1.14511 20 2.54543 20C3.94577 20 5.09086 18.8531 5.09086 17.4506C5.09085 16.0481 3.94576 14.9014 2.54543 14.9014ZM2.54543 15.8224C3.44876 15.8224 4.17123 16.5459 4.17124 17.4506C4.17124 18.3554 3.44877 19.079 2.54543 19.079C1.64211 19.079 0.91962 18.3554 0.91962 17.4506C0.91962 16.5459 1.64211 15.8224 2.54543 15.8224Z" fill="#3D3D3D"/>
<path fill-rule="evenodd" clip-rule="evenodd" d="M6.85996 15.6646C6.73801 15.6646 6.62106 15.7131 6.53483 15.7994C6.4486 15.8858 6.40015 16.0029 6.40015 16.1251C6.40015 16.2472 6.4486 16.3644 6.53483 16.4507C6.62106 16.5371 6.73801 16.5856 6.85996 16.5856H19.5402C19.6621 16.5856 19.7791 16.5371 19.8653 16.4507C19.9515 16.3644 20 16.2472 20 16.1251C20 16.0029 19.9515 15.8858 19.8653 15.7994C19.7791 15.7131 19.6621 15.6646 19.5402 15.6646H6.85996Z" fill="#3D3D3D"/>
<path fill-rule="evenodd" clip-rule="evenodd" d="M6.85996 18.3164C6.73801 18.3164 6.62106 18.3649 6.53483 18.4513C6.4486 18.5377 6.40015 18.6548 6.40015 18.7769C6.40015 18.8991 6.4486 19.0162 6.53483 19.1026C6.62106 19.189 6.73801 19.2375 6.85996 19.2375H12.1085C12.2304 19.2375 12.3474 19.189 12.4336 19.1026C12.5199 19.0162 12.5683 18.8991 12.5683 18.7769C12.5683 18.6548 12.5199 18.5377 12.4336 18.4513C12.3474 18.3649 12.2304 18.3164 12.1085 18.3164H6.85996Z" fill="#3D3D3D"/>
</svg>
