
<svg width="32" height="31" viewBox="0 0 32 31" fill="none" xmlns="http://www.w3.org/2000/svg">
<path d="M11.4982 0.650278C9.35199 0.834278 7.59887 1.36228 5.88293 2.34628C3.58527 3.66361 1.73652 5.75694 0.798867 8.10095C0.355273 9.21561 0.148086 10.1329 0.0338672 11.5196C-0.0112891 12.0609 -0.0112891 12.1116 0.0338672 12.6396C0.10293 13.4636 0.174648 13.9516 0.31543 14.5543C0.743086 16.3676 1.7073 18.1383 3.03543 19.5543C5.87231 22.5756 10.0453 24.0023 14.3006 23.4049C17.6076 22.9409 20.6251 21.1863 22.5775 18.5889C23.7622 17.0156 24.4661 15.2689 24.7184 13.2743C24.7848 12.7569 24.7848 11.3783 24.7184 10.8743C24.5404 9.53295 24.219 8.45295 23.6532 7.31428C22.2667 4.52495 19.7087 2.34628 16.5929 1.30361C15.4747 0.92761 14.529 0.746277 13.1 0.634277C12.4757 0.586277 12.2287 0.586277 11.4982 0.650278ZM13.5382 4.04494C15.3418 4.28228 16.9382 4.97028 18.2717 6.08495C18.5479 6.31428 19.0632 6.82895 19.2917 7.10095C20.1045 8.06628 20.6597 9.14095 20.9412 10.3009C21.0979 10.9383 21.1511 11.3916 21.1484 12.0876C21.1457 13.3143 20.904 14.3383 20.3542 15.4476C19.1589 17.8556 16.7311 19.5996 13.9367 20.0583C13.3842 20.1489 13.0229 20.1756 12.4014 20.1756C11.7798 20.1756 11.4186 20.1489 10.8661 20.0583C8.28684 19.6343 5.99449 18.1009 4.71949 15.9489C4.01027 14.7463 3.65965 13.4716 3.65699 12.0876C3.65699 11.5169 3.68356 11.2183 3.78449 10.6796C4.15902 8.66895 5.39949 6.81828 7.2084 5.57561C8.43293 4.73295 9.92574 4.18095 11.3787 4.03695C11.5407 4.02094 11.7134 4.00228 11.7639 3.99695C11.9896 3.97028 13.2301 4.00495 13.5382 4.04494Z" fill="#ACA9A9"/>
<path d="M21.5284 18.1196C20.8484 19.029 19.7965 19.9996 18.8721 20.5703C18.7287 20.661 18.6039 20.741 18.5959 20.7516C18.5906 20.7623 19.5867 21.6903 20.8085 22.8103C22.0304 23.9303 24.3334 26.0423 25.9245 27.501C27.5156 28.9596 28.8278 30.1543 28.841 30.1543C28.8517 30.1543 29.5635 29.5143 30.4189 28.7303L31.9728 27.3036L31.8585 27.1916C31.6381 26.9703 21.7303 17.901 21.7117 17.901C21.701 17.901 21.6187 17.9996 21.5284 18.1196Z" fill="#ACA9A9"/>
</svg>
