<?xml version="1.0" standalone="no"?>
<!DOCTYPE svg PUBLIC "-//W3C//DTD SVG 20010904//EN"
 "http://www.w3.org/TR/2001/REC-SVG-20010904/DTD/svg10.dtd">
<svg version="1.0" xmlns="http://www.w3.org/2000/svg"
 width="488.000000pt" height="448.000000pt" viewBox="0 0 488.000000 448.000000"
 preserveAspectRatio="xMidYMid meet">

<g transform="translate(0.000000,448.000000) scale(0.100000,-0.100000)"
fill="#000000" stroke="none">
<path d="M2835 4462 c-80 -30 -157 -85 -236 -171 -93 -99 -134 -167 -156 -255
-14 -59 -15 -79 -5 -138 7 -37 12 -89 12 -114 0 -26 7 -91 16 -145 15 -96 15
-98 -5 -118 -12 -12 -21 -33 -20 -48 1 -23 2 -25 7 -8 4 11 13 29 20 40 12 20
13 20 30 -5 9 -14 29 -38 44 -55 25 -28 28 -29 43 -14 13 13 17 46 21 175 6
181 13 204 63 196 23 -3 42 4 78 30 62 45 74 49 118 37 29 -8 52 -6 123 15 85
26 161 33 176 19 4 -5 24 -15 44 -23 86 -35 154 -105 139 -144 -3 -8 -25 -17
-48 -21 -85 -14 -197 -81 -185 -110 3 -9 2 -14 -3 -11 -10 6 -21 -26 -21 -61
0 -18 6 -23 27 -23 15 0 40 -5 57 -11 30 -11 31 -13 31 -73 1 -33 4 -72 9 -86
7 -24 6 -24 -17 5 -14 17 -28 27 -32 23 -4 -3 -20 8 -36 25 l-30 32 4 -58 c3
-42 9 -61 23 -72 15 -11 16 -14 4 -15 -12 0 -13 -2 -1 -9 11 -7 11 -10 0 -17
-21 -13 -81 -35 -111 -41 -41 -8 -34 -17 26 -37 41 -14 67 -17 112 -11 70 8
107 24 95 39 -8 9 8 78 21 91 2 3 21 2 41 -2 32 -5 37 -9 31 -27 -3 -11 -7
-25 -8 -31 0 -5 -23 -33 -51 -61 -46 -46 -57 -52 -128 -67 -43 -9 -116 -17
-162 -17 -49 0 -85 -4 -85 -10 0 -14 98 -62 102 -49 2 7 122 18 210 19 3 0 20
11 36 25 43 36 51 13 10 -26 -41 -38 -76 -57 -152 -84 -33 -11 -61 -26 -63
-32 -3 -7 9 -19 25 -27 16 -8 32 -22 35 -30 7 -17 -14 -66 -27 -66 -5 0 -17
-10 -27 -22 -14 -16 -16 -24 -8 -35 6 -7 15 -13 20 -13 5 0 34 -24 63 -53 39
-40 63 -56 91 -60 20 -3 43 -14 50 -24 12 -16 15 -15 48 10 42 32 110 100 145
145 19 25 22 36 14 44 -9 9 -12 8 -12 -3 0 -8 -8 -19 -18 -26 -15 -9 -21 -8
-29 6 -18 28 -25 79 -14 99 16 29 3 33 -37 10 -34 -19 -36 -19 -21 -2 9 11 29
42 45 71 18 34 32 49 39 43 7 -6 10 0 9 18 0 15 2 29 5 32 40 33 53 150 25
220 -23 58 -16 188 12 227 19 26 20 33 9 85 -6 31 -16 62 -22 70 -6 7 -13 31
-15 53 -3 38 -2 40 28 43 29 3 32 0 38 -33 4 -20 16 -45 27 -56 15 -15 19 -33
19 -79 0 -48 4 -62 18 -68 9 -4 19 -14 21 -22 5 -21 2 -99 -5 -132 l-5 -26 60
30 c96 48 148 143 121 222 -13 39 -68 92 -105 102 l-24 6 25 55 c59 135 45
290 -36 378 -10 11 -35 56 -56 100 -44 94 -108 166 -179 203 -44 23 -67 27
-195 35 -324 18 -322 18 -375 -1z m882 -808 c-3 -3 -12 -4 -19 -1 -8 3 -5 6 6
6 11 1 17 -2 13 -5z m-2 -234 c3 -5 1 -10 -4 -10 -6 0 -11 5 -11 10 0 6 2 10
4 10 3 0 8 -4 11 -10z m-435 -103 c9 -3 5 -6 -10 -6 -19 0 -29 8 -43 37 l-18
37 28 -31 c15 -17 35 -34 43 -37z m-125 -247 c-28 -12 -155 -12 -155 0 0 6 35
10 88 9 58 0 80 -3 67 -9z"/>
<path d="M2716 3597 c-10 -7 -17 -22 -14 -33 3 -16 16 -20 78 -28 128 -15 174
-13 178 5 4 23 -22 46 -66 59 -52 14 -155 13 -176 -3z"/>
<path d="M2825 3493 c-97 -24 -68 -173 34 -173 11 0 32 11 47 24 66 56 4 169
-81 149z"/>
<path d="M2078 1524 c13 -9 30 -13 38 -10 24 9 6 26 -29 26 l-31 0 22 -16z"/>
<path d="M2240 1500 c0 -4 12 -11 26 -14 37 -10 111 -82 124 -122 11 -33 -1
-133 -19 -159 -4 -5 -14 -30 -21 -55 -7 -25 -21 -54 -29 -65 -16 -19 -15 -19
9 -3 14 9 24 23 24 32 -1 8 3 14 9 13 14 -3 59 78 94 168 32 83 40 96 62 93
23 -4 27 39 4 46 -10 2 -56 16 -103 30 -102 31 -180 46 -180 36z"/>
<path d="M4285 1350 c-128 -23 -257 -82 -288 -132 -19 -29 -33 -90 -16 -68 9
13 10 12 6 -5 -4 -19 0 -20 56 -15 57 5 61 7 68 34 11 41 33 60 101 91 82 37
170 44 224 18 21 -10 52 -19 68 -18 23 1 30 -5 38 -27 l10 -28 30 18 c40 23
61 64 45 85 -31 42 -225 68 -342 47z"/>
<path d="M2246 1042 c-10 -17 27 -24 43 -7 9 9 11 15 4 15 -7 0 -15 -5 -19
-11 -5 -8 -9 -8 -14 1 -5 8 -10 8 -14 2z"/>
<path d="M2154 1006 c-28 -13 -55 -29 -58 -35 -4 -6 -19 -9 -34 -6 -22 4 -23
4 -7 -3 18 -8 16 -10 -13 -16 -18 -4 -37 -16 -42 -26 -5 -10 -22 -21 -37 -25
-15 -3 -38 -17 -52 -31 -28 -29 -82 -46 -94 -30 -9 12 1 -47 14 -82 5 -13 14
-20 20 -16 8 4 7 9 -2 15 -12 8 -11 11 1 18 23 14 79 54 108 77 15 12 53 37
84 56 32 19 55 38 50 43 -4 5 -2 5 4 2 7 -4 45 9 85 29 53 26 68 38 58 45 -20
12 -27 11 -85 -15z m75 10 c-14 -13 -70 -36 -64 -26 4 6 17 15 29 20 22 9 42
13 35 6z m-189 -90 c0 -3 -4 -8 -10 -11 -5 -3 -10 -1 -10 4 0 6 5 11 10 11 6
0 10 -2 10 -4z"/>
<path d="M4445 951 c-10 -8 -151 -53 -230 -72 -21 -6 -105 -21 -185 -34 -80
-14 -161 -29 -180 -35 -19 -6 -69 -17 -110 -25 -41 -8 -108 -21 -149 -30 -76
-17 -99 -16 -271 3 -185 22 -388 35 -433 29 -44 -6 -214 -61 -226 -73 -3 -3 8
-3 24 1 54 11 4 -12 -61 -29 -61 -16 -199 -70 -220 -87 -19 -15 -54 2 -54 26
0 28 98 97 214 150 42 19 76 37 76 39 0 10 -137 -39 -154 -56 -6 -4 -16 -8
-24 -8 -7 0 -50 -18 -95 -39 -101 -48 -128 -53 -142 -25 l-10 21 -40 -21 c-58
-30 -49 -49 33 -71 37 -9 78 -19 92 -22 62 -11 70 -14 65 -24 -4 -5 -14 -7
-23 -5 -10 3 -24 1 -32 -4 -11 -7 2 -10 42 -10 31 0 58 4 60 10 2 5 59 12 128
15 69 3 194 13 278 22 191 19 238 15 272 -25 l25 -29 130 23 c72 13 150 23
175 23 25 1 137 12 250 26 637 78 701 88 758 117 54 28 116 102 109 130 -3 10
-1 15 4 12 6 -3 8 6 5 21 -5 27 -31 54 -53 55 -6 0 -17 2 -25 5 -7 3 -18 1
-23 -4z"/>
<path d="M1933 632 c-30 -8 -53 -21 -53 -28 0 -18 16 -18 23 0 3 8 26 18 52
21 25 4 48 11 51 16 7 12 -10 10 -73 -9z"/>
<path d="M2105 593 c-22 -9 -63 -16 -91 -17 -29 0 -50 -4 -47 -9 2 -4 -9 -10
-26 -13 -17 -4 -31 -10 -31 -15 0 -5 12 -4 26 1 14 6 46 10 70 10 25 0 52 6
59 14 8 7 34 17 60 20 25 4 45 11 45 17 0 12 -16 10 -65 -8z"/>
<path d="M2180 533 c-24 -3 -47 -9 -51 -14 -11 -19 -134 -34 -173 -22 -20 6
-36 7 -36 2 0 -5 7 -9 15 -9 18 0 20 -16 3 -23 -7 -3 17 -5 55 -5 46 0 67 4
67 12 0 16 99 40 134 34 15 -3 30 0 34 7 4 7 14 15 22 18 17 6 4 6 -70 0z"/>
<path d="M2628 534 c-4 -3 -37 -9 -75 -14 l-68 -9 71 3 c39 2 79 8 90 14 15 9
16 11 3 12 -9 0 -18 -3 -21 -6z"/>
<path d="M2468 495 c-6 -6 -63 -13 -115 -14 -24 -1 -43 -5 -43 -11 0 -20 152
-1 166 21 5 10 1 12 -8 4z"/>
<path d="M2078 453 c7 -3 16 -2 19 1 4 3 -2 6 -13 5 -11 0 -14 -3 -6 -6z"/>
<path d="M2127 431 c10 -10 31 -12 77 -9 104 9 105 23 2 23 -79 0 -90 -2 -79
-14z"/>
<path d="M2107 413 c-8 -7 -35 -10 -114 -12 -68 -1 -84 -16 -28 -27 50 -9 183
24 158 39 -6 4 -13 4 -16 0z"/>
</g>
</svg>
