
<svg width="20" height="20" viewBox="0 0 20 20" fill="none" xmlns="http://www.w3.org/2000/svg">
<path d="M7.2 0C6.96 0 6.8 0.0833333 6.64 0.25L0.24 6.91667C0.08 7.08333 0 7.25 0 7.5C0 7.75 0.08 7.91667 0.24 8.08333L1.36 9.25C1.52 9.41667 1.76 9.5 1.92 9.5C2.16 9.5 2.32 9.41667 2.48 9.25L4.08 7.58333C4.32 7.33333 4.8 7.5 4.8 7.91667V19.1667C4.8 19.5833 5.2 20 5.6 20H7.2C7.6 20 8 19.5833 8 19.1667V0.833333C8 0.583333 7.92 0.416667 7.76 0.25C7.6 0.0833333 7.44 0 7.2 0Z" fill="#3D3D3D"/>
<path d="M19.76 11.9167L18.64 10.75C18.48 10.5833 18.24 10.5 18.08 10.5C17.84 10.5 17.68 10.5833 17.52 10.75L15.92 12.4167C15.68 12.6667 15.2 12.5 15.2 12.0833V0.833333C15.2 0.416667 14.8 0 14.4 0H12.8C12.4 0 12 0.416667 12 0.833333V19.1667C12 19.4167 12.08 19.5833 12.24 19.75C12.4 19.9167 12.64 20 12.8 20C13.04 20 13.2 19.9167 13.36 19.75L19.76 13.0833C19.92 12.9167 20 12.75 20 12.5C20 12.25 19.92 12.0833 19.76 11.9167Z" fill="#3D3D3D"/>
</svg>
